<svg version="1.1" id="Layer_1" xmlns="http://www.w3.org/2000/svg" xmlns:xlink="http://www.w3.org/1999/xlink" x="0px" y="0px"
	 width="100%" viewBox="0 0 499 499" enable-background="new 0 0 499 499" xml:space="preserve">
M231.782913,134.460724 
	C231.137207,134.924408 230.491486,135.388092 229.141098,135.937912 
	C225.427795,138.603714 221.714478,141.269501 218.004883,143.114883 
	C217.999008,141.737915 217.993149,140.360931 218.283463,138.383575 
	C219.889893,136.618469 221.496338,134.853378 223.619659,132.731766 
	C224.110382,131.842148 224.601105,130.952530 225.597000,129.480789 
	C224.281006,124.732262 222.964996,119.983734 222.006836,114.641876 
	C222.996002,113.477554 223.985168,112.313240 225.593460,110.866211 
	C226.451797,109.732178 227.310135,108.598145 228.713272,106.870079 
	C229.099960,101.113091 227.850647,99.596405 222.263351,99.820366 
	C216.549561,100.049385 210.819107,100.383057 205.154755,101.121735 
	C201.995621,101.533714 198.956146,102.863167 195.193085,103.981728 
	C193.775101,105.292625 192.357117,106.603516 190.406128,108.119331 
	C185.988220,113.070198 185.373306,122.026405 188.911804,127.454941 
	C191.185013,131.706711 193.351349,136.022110 195.815414,140.160233 
	C196.352142,141.061615 197.953934,141.328812 199.741806,142.240341 
	C201.490005,142.468079 203.238190,142.695801 205.342087,143.492844 
	C205.884277,144.617340 206.426468,145.741821 206.531738,147.043655 
	C206.531738,147.043655 206.090424,147.209732 205.496735,146.916336 
	C201.332428,146.114609 198.572281,148.694214 197.574722,151.854858 
	C197.107956,153.333725 199.968033,155.907837 201.419418,157.913849 
	C201.766373,158.393387 202.509430,158.586319 203.695816,158.988831 
	C204.446716,159.343048 205.197617,159.697266 205.883194,160.794647 
	C204.622849,163.904358 203.362488,167.014084 202.070251,170.991943 
	C201.975418,173.041641 201.880585,175.091324 200.912567,177.088486 
	C189.422653,178.599533 177.875839,179.777466 166.461044,181.728104 
	C157.495071,183.260254 153.393997,188.919312 153.084320,198.130692 
	C152.883850,204.093918 152.484604,210.050293 152.192886,216.010635 
	C151.235550,235.572006 150.211349,255.130554 149.377472,274.697205 
	C149.104477,281.102783 149.334534,287.529816 149.334534,293.708313 
	C141.158112,293.708313 134.102386,293.708313 127.268257,293.708313 
	C127.268257,288.947144 127.085129,284.636475 127.298996,280.345612 
	C128.397324,258.309387 129.549774,236.275528 130.780624,214.246277 
	C131.512329,201.150375 131.927139,188.007828 133.412354,174.992142 
	C134.583466,164.729080 130.763107,157.743973 120.550957,156.693527 
	C104.723602,155.065506 88.824371,154.052444 72.934288,153.157150 
	C66.064461,152.770096 60.389442,158.542511 60.177639,165.573883 
	C59.960079,172.796402 59.947250,180.035294 60.151463,187.258347 
	C60.714985,207.190216 61.292442,227.123871 62.153069,247.044357 
	C62.682922,259.308746 63.608372,271.561066 64.595329,283.799500 
	C65.996529,301.174438 67.692619,318.525513 69.112236,335.899048 
	C69.779297,344.062622 77.142677,350.076874 85.449570,348.772217 
	C91.158394,347.875610 96.820572,346.679840 102.531837,345.801422 
	C115.953087,343.737122 129.417358,341.939606 142.810455,339.711029 
	C148.586853,338.749847 153.569870,339.068024 159.332275,341.396240 
	C165.342010,343.824371 172.629181,343.664825 179.355240,343.647034 
	C208.980667,343.568665 238.604950,343.106781 268.230194,342.849243 
	C274.026855,342.798828 278.969421,341.157013 281.933563,336.811615 
	C284.107452,338.266632 285.907745,340.355072 288.005585,340.716583 
	C295.484711,342.005371 303.063477,343.479553 310.607300,343.494781 
	C340.241913,343.554718 369.878540,343.154510 399.512085,342.752930 
	C405.363739,342.673645 410.477966,340.754578 413.463226,334.953033 
	C415.641785,330.719208 418.817108,326.956940 420.689209,322.614166 
	C427.604614,306.572296 434.620544,290.575378 437.664673,273.141907 
	C439.996063,259.790131 442.745209,246.484344 446.022522,233.336060 
	C447.675507,226.704391 445.354034,221.963013 441.326813,217.521683 
	C439.232208,215.211685 436.686859,213.259567 434.154938,211.405487 
	C421.063904,201.819214 407.956482,192.253998 394.762085,182.810883 
	C387.808319,177.834122 380.534821,173.833389 371.355194,175.198044 
	C366.133118,175.974365 360.784363,176.294052 355.503052,176.204514 
	C336.663116,175.885132 318.131470,178.635590 299.567322,181.256836 
	C293.020020,182.181320 287.898743,184.953064 284.989807,191.024963 
	C284.116028,192.848877 283.814575,194.946945 283.088440,197.487961 
	C276.454071,192.469543 270.422607,187.838364 264.316559,183.307709 
	C258.206512,178.774109 251.947083,174.648560 243.745651,175.320648 
	C240.529602,175.584198 237.270645,175.324097 234.334473,174.800781 
	C233.933578,173.863953 233.532684,172.927109 233.819687,171.874451 
	C234.191666,170.869980 234.563644,169.865494 234.800232,168.173767 
	C232.498428,164.801987 230.196625,161.430206 227.944351,157.397400 
	C227.569016,156.909058 227.193695,156.420700 226.885956,155.210220 
	C226.746552,154.034332 226.607147,152.858459 226.752380,150.943970 
	C226.175842,149.009979 225.599304,147.076004 224.934814,144.847000 
	C228.931808,143.574432 232.961685,142.291382 237.604935,140.755951 
	C239.401642,139.170029 241.198349,137.584106 243.429016,135.478973 
	C243.490112,134.689423 243.869171,133.733932 243.558380,133.138474 
	C242.051346,130.250977 237.821045,128.956482 238.645706,124.686195 
	C238.025101,125.008171 237.404495,125.330147 236.207336,125.909569 
	C234.589233,126.326393 232.971130,126.743210 230.915375,127.272766 
	C231.270050,129.218155 231.703232,131.594131 231.782913,134.460724 
M238.094162,363.227448 
	C239.896545,356.718231 237.571259,355.111328 228.507401,356.771149 
	C228.507401,361.298065 228.507401,365.857391 228.507401,370.916595 
	C230.770233,370.916595 232.727768,370.989471 234.678116,370.901825 
	C239.098236,370.703308 240.338577,368.333618 238.094162,363.227448 
M282.905579,369.941193 
	C282.905579,366.801575 282.905579,363.661987 282.905579,360.387726 
	C279.017120,360.264709 274.319855,358.110657 273.322693,364.041321 
	C272.812531,367.075348 273.619080,370.357178 274.049377,373.497009 
	C274.121094,374.020355 275.268890,374.660309 275.997955,374.784210 
	C279.307037,375.346466 282.045654,374.781799 282.905579,369.941193 
M318.641083,368.036469 
	C318.261627,370.600952 319.660248,371.085114 321.841675,370.948029 
	C324.872375,370.757599 328.797363,371.800385 329.614960,367.701355 
	C330.211670,364.709442 330.416840,360.374115 328.728973,358.525970 
	C326.806305,356.420807 322.586884,356.413208 318.655609,355.291290 
	C318.655609,360.254883 318.655609,363.695282 318.641083,368.036469 
M187.120071,359.957703 
	C182.958969,361.430664 182.588776,364.891632 183.934433,368.056549 
	C184.560532,369.528992 188.245041,371.260559 189.257187,370.670135 
	C191.106064,369.591583 192.901062,366.944550 193.069183,364.821167 
	C193.297623,361.936127 191.581268,359.357849 187.120071,359.957703 
M352.000763,359.899292 
	C347.136475,359.605347 345.516571,362.319489 345.951202,366.662750 
	C346.470306,371.850922 350.159576,371.117645 354.067902,370.658356 
	C352.706055,367.151062 359.209656,363.010071 352.000763,359.899292 
M402.218842,361.388763 
	C400.190002,359.248566 397.553772,358.608551 395.858643,361.056610 
	C392.101166,366.483032 399.854370,365.352692 400.789673,368.435944 
	C399.011261,368.885162 397.532898,369.258606 396.054535,369.632050 
	C396.189636,370.187592 396.324738,370.743164 396.459839,371.298706 
	C398.635468,370.734375 400.811127,370.170044 402.986755,369.605713 
	C402.561707,367.974335 401.977783,366.362122 401.777679,364.703613 
	C401.675385,363.855682 402.260712,362.924774 402.218842,361.388763 
M374.286560,364.019165 
	C373.477875,362.640411 372.669159,361.261658 371.860474,359.882904 
	C371.330688,360.157379 370.800903,360.431854 370.271088,360.706329 
	C371.759277,364.211639 373.247467,367.716919 374.735657,371.222229 
	C375.303284,371.173157 375.870941,371.124084 376.438568,371.075012 
	C377.706421,367.556488 378.974274,364.037964 380.242126,360.519440 
	C379.687653,360.295563 379.133148,360.071686 378.578674,359.847809 
	C377.751312,361.498657 376.958405,363.169159 376.044891,364.770874 
	C375.950592,364.936249 375.137848,364.691864 374.286560,364.019165 
M85.737862,366.147888 
	C85.737862,362.837402 85.737862,359.526947 85.737862,356.216461 
	C84.915176,356.212250 84.092484,356.208038 83.269798,356.203796 
	C83.269798,359.482819 83.099617,362.774445 83.341461,366.035522 
	C83.462730,367.670807 84.286034,370.600616 84.875130,370.621735 
	C87.438004,370.713593 90.491699,372.101501 92.708580,369.797119 
	C90.166435,368.786499 87.962440,367.910309 85.737862,366.147888 
M145.208862,360.892334 
	C145.539688,363.157013 146.094894,365.416687 146.145996,367.687653 
	C146.213699,370.696930 147.385971,371.589905 149.573044,370.765320 
	C149.573044,367.268738 149.573044,364.060638 149.573044,360.852509 
	C149.893478,360.828094 150.213898,360.803680 150.534332,360.779266 
	C149.600571,359.505066 148.666809,358.230865 147.395432,356.495972 
	C146.640381,358.006226 146.097473,359.092133 145.208862,360.892334 
M130.822159,361.607208 
	C129.949112,360.128204 129.076065,358.649170 128.169922,357.114075 
	C125.547356,361.908783 126.433189,369.549774 128.913330,370.296631 
	C129.337204,367.637177 129.775497,364.887207 130.822159,361.607208 
M110.799568,369.870422 
	C110.548698,366.541748 112.132744,362.852448 108.850723,360.021820 
	C108.117813,363.241333 108.042915,366.401611 108.214447,369.548492 
	C108.235428,369.933319 109.577904,370.246094 110.799568,369.870422 
z"/>
<path fill="#C90709" opacity="1.000000" stroke="none" 
	d="
M234.031219,175.302475 
	C237.270645,175.324097 240.529602,175.584198 243.745651,175.320648 
	C251.947083,174.648560 258.206512,178.774109 264.316559,183.307709 
	C270.422607,187.838364 276.454071,192.469543 283.088440,197.487961 
	C283.814575,194.946945 284.116028,192.848877 284.989807,191.024963 
	C287.898743,184.953064 293.020020,182.181320 299.567322,181.256836 
	C318.131470,178.635590 336.663116,175.885132 355.503052,176.204514 
	C360.784363,176.294052 366.133118,175.974365 371.355194,175.198044 
	C380.534821,173.833389 387.808319,177.834122 394.762085,182.810883 
	C407.956482,192.253998 421.063904,201.819214 434.154938,211.405487 
	C436.686859,213.259567 439.232208,215.211685 441.326813,217.521683 
	C445.354034,221.963013 447.675507,226.704391 446.022522,233.336060 
	C442.745209,246.484344 439.996063,259.790131 437.664673,273.141907 
	C434.620544,290.575378 427.604614,306.572296 420.689209,322.614166 
	C418.817108,326.956940 415.641785,330.719208 413.463226,334.953033 
	C410.477966,340.754578 405.363739,342.673645 399.512085,342.752930 
	C369.878540,343.154510 340.241913,343.554718 310.607300,343.494781 
	C303.063477,343.479553 295.484711,342.005371 288.005585,340.716583 
	C285.907745,340.355072 284.107452,338.266632 281.933563,336.811615 
	C278.969421,341.157013 274.026855,342.798828 268.230194,342.849243 
	C238.604950,343.106781 208.980667,343.568665 179.355240,343.647034 
	C172.629181,343.664825 165.342010,343.824371 159.332275,341.396240 
	C153.569870,339.068024 148.586853,338.749847 142.810455,339.711029 
	C129.417358,341.939606 115.953087,343.737122 102.531837,345.801422 
	C96.820572,346.679840 91.158394,347.875610 85.449570,348.772217 
	C77.142677,350.076874 69.779297,344.062622 69.112236,335.899048 
	C67.692619,318.525513 65.996529,301.174438 64.595329,283.799500 
	C63.608372,271.561066 62.682922,259.308746 62.153069,247.044357 
	C61.292442,227.123871 60.714985,207.190216 60.151463,187.258347 
	C59.947250,180.035294 59.960079,172.796402 60.177639,165.573883 
	C60.389442,158.542511 66.064461,152.770096 72.934288,153.157150 
	C88.824371,154.052444 104.723602,155.065506 120.550957,156.693527 
	C130.763107,157.743973 134.583466,164.729080 133.412354,174.992142 
	C131.927139,188.007828 131.512329,201.150375 130.780624,214.246277 
	C129.549774,236.275528 128.397324,258.309387 127.298996,280.345612 
	C127.085129,284.636475 127.268257,288.947144 127.268257,293.708313 
	C134.102386,293.708313 141.158112,293.708313 149.334534,293.708313 
	C149.334534,287.529816 149.104477,281.102783 149.377472,274.697205 
	C150.211349,255.130554 151.235550,235.572006 152.192886,216.010635 
	C152.484604,210.050293 152.883850,204.093918 153.084320,198.130692 
	C153.393997,188.919312 157.495071,183.260254 166.461044,181.728104 
	C177.875839,179.777466 189.422653,178.599533 201.635818,177.436249 
	C206.002335,177.504654 209.645599,177.225327 213.692017,176.972961 
	C216.410355,176.680252 218.725510,176.360611 221.304214,176.347168 
	C225.722244,176.203064 229.876724,175.752777 234.031219,175.302475 
M297.373505,198.245270 
	C295.530701,241.740829 291.973511,285.196777 293.698486,328.714386 
	C294.828796,328.953400 295.310486,329.144165 295.792297,329.144440 
	C330.104065,329.164703 364.415955,329.201416 398.727142,329.062988 
	C400.129608,329.057343 402.153046,327.721558 402.822113,326.446564 
	C407.058929,318.372986 411.530273,310.357086 414.926514,301.920502 
	C423.728821,280.055023 428.057281,257.017059 431.941223,233.869873 
	C432.788696,228.819214 431.308075,225.776688 427.336487,222.968445 
	C413.118561,212.915253 399.090302,202.593796 384.865540,192.550430 
	C382.528992,190.900711 379.578094,189.156540 376.889038,189.120850 
	C351.867798,188.788864 326.967255,190.546555 302.265930,194.640457 
	C300.597443,194.916977 299.137024,196.449066 297.373505,198.245270 
M188.662521,191.960083 
	C182.738953,192.849655 176.833664,193.903076 170.884918,194.567215 
	C167.329147,194.964188 166.270660,196.562012 166.171890,200.056564 
	C165.776505,214.044708 164.954010,228.020340 164.502518,242.007477 
	C163.621109,269.313812 162.871750,296.624481 162.112869,323.934601 
	C162.068268,325.539948 162.424225,327.156433 162.567429,328.517273 
	C163.216888,328.779022 163.371338,328.895599 163.526062,328.896027 
	C198.507050,328.987762 233.488068,329.092773 268.468964,329.062592 
	C269.640533,329.061584 271.419159,327.965546 271.889557,326.919067 
	C277.806976,313.754456 283.503052,300.490601 289.334869,287.287048 
	C290.793030,283.985687 289.477509,281.851074 286.784241,280.200897 
	C280.137360,276.128265 273.469574,272.089203 266.782715,268.082458 
	C262.047577,265.245209 257.267578,262.482788 251.741669,259.237091 
	C256.453125,256.683899 260.162933,254.600540 263.937988,252.643097 
	C271.620697,248.659470 278.446442,243.975082 280.835876,234.878082 
	C281.929626,230.713928 283.865814,226.761032 284.823792,222.575851 
	C285.246368,220.729797 284.910950,217.664719 283.682922,216.650650 
	C273.227325,208.016571 262.593506,199.585083 251.741974,191.454727 
	C249.576385,189.832199 246.221558,188.976669 243.469604,189.090103 
	C225.498169,189.830841 207.541779,190.935760 188.662521,191.960083 
M75.053398,249.445984 
	C77.468269,277.883911 79.883133,306.321869 82.335945,335.206573 
	C86.836594,334.685547 90.303658,334.423065 93.722610,333.865540 
	C113.583786,330.626648 133.421722,327.242462 153.300797,324.119354 
	C156.125122,323.675629 157.526505,322.609222 157.836121,319.910248 
	C158.267532,316.149353 158.688492,312.387268 159.194611,307.912292 
	C143.608505,307.912292 128.576553,307.912292 112.557175,307.912292 
	C114.909775,261.745056 117.226082,216.290161 119.562721,170.436172 
	C104.489372,167.808151 89.117119,166.097595 72.926445,166.363983 
	C73.641289,194.244263 74.336342,221.352554 75.053398,249.445984 
z"/>
<path fill="#6B5C44" opacity="1.000000" stroke="none" 
	d="
M221.648987,115.235207 
	C222.964996,119.983734 224.281006,124.732262 225.032974,129.732391 
	C224.261368,129.959824 224.053802,129.935654 223.793777,129.513687 
	C223.093689,125.499054 221.267319,124.889641 218.325684,127.273666 
	C215.930405,129.214890 213.501907,131.115112 210.773193,132.898575 
	C209.781097,131.696274 208.680649,130.691589 208.511459,129.549011 
	C208.111664,126.848938 208.493713,124.222321 209.063965,121.443497 
	C209.578705,118.935028 207.126495,115.817711 206.100311,112.667038 
	C207.424011,111.571251 208.630112,110.777313 210.247681,110.021667 
	C214.322418,111.785042 217.985703,113.510124 221.648987,115.235207 
M211.755280,120.656754 
	C213.373245,119.832375 215.007294,119.034622 216.557556,118.098190 
	C216.628632,118.055260 216.091919,116.306633 215.586533,116.146378 
	C214.320801,115.745041 212.910339,115.800224 211.557922,115.672287 
	C211.432251,117.189140 211.306564,118.706001 211.755280,120.656754 
z"/>
<path fill="#2F281E" opacity="1.000000" stroke="none" 
	d="
M199.065186,141.888107 
	C197.953934,141.328812 196.352142,141.061615 195.815414,140.160233 
	C193.351349,136.022110 191.185013,131.706711 189.321579,127.050720 
	C193.087357,123.735619 195.801971,119.738213 200.919312,120.247345 
	C200.497375,120.978989 200.176575,121.445625 199.528839,122.002701 
	C197.367828,124.736534 201.676575,129.753601 195.183075,130.372742 
	C202.419907,135.708939 202.419907,135.708939 207.386200,134.123352 
	C208.793015,134.031219 209.815811,133.958527 210.996170,134.131363 
	C211.455139,134.618134 211.756516,134.859375 212.042572,135.421631 
	C212.558533,136.136032 213.252151,136.977554 213.595840,136.853058 
	C216.799088,135.692719 219.942230,134.366470 223.102783,133.088287 
	C221.496338,134.853378 219.889893,136.618469 217.723907,138.695557 
	C214.441910,139.335648 211.719452,139.663773 208.990387,139.639557 
	C205.960495,136.319550 200.630905,137.717087 199.065186,141.888107 
z"/>
<path fill="#2F281E" opacity="1.000000" stroke="none" 
	d="
M218.001175,143.935303 
	C221.714478,141.269501 225.427795,138.603714 229.535156,136.176941 
	C229.945984,136.604614 229.962738,136.793274 230.070236,137.248428 
	C230.421860,138.011902 230.682709,138.508881 230.734573,139.136444 
	C230.531326,139.631302 230.537079,139.995575 230.542847,140.359863 
	C231.025223,139.903595 231.507599,139.447342 232.246582,138.981262 
	C232.674286,138.975937 232.845398,138.980469 233.093109,139.167557 
	C233.435226,139.223419 233.700775,139.096756 233.970154,138.727966 
	C233.973984,138.485870 234.014801,138.003311 234.307465,138.144836 
	C235.397278,139.193680 236.194427,140.101013 236.991577,141.008347 
	C232.961685,142.291382 228.931808,143.574432 224.934814,144.847000 
	C225.599304,147.076004 226.175842,149.009979 226.240112,151.182648 
	C222.585251,150.620117 219.442657,149.818893 216.300049,149.017654 
	C216.012161,149.602173 215.724289,150.186691 215.436401,150.771210 
	C217.664642,152.237534 219.892883,153.703857 222.103210,155.158401 
	C220.807098,155.809464 219.689697,156.370758 218.572296,156.932037 
	C218.708160,157.251572 218.844009,157.571106 218.979874,157.890640 
	C220.641708,158.156433 222.303558,158.422241 223.947052,159.097275 
	C221.576248,159.569366 219.223785,159.632217 216.982697,159.415039 
	C217.060974,158.407791 217.027878,157.680573 217.034088,156.660782 
	C217.062347,155.975037 217.051331,155.581848 216.948074,154.834106 
	C215.603958,154.699341 214.352081,154.919128 212.823929,155.014557 
	C209.984619,153.304886 212.128632,151.612411 212.363785,149.922150 
	C212.494827,148.980347 212.128845,147.969406 211.875565,146.698608 
	C212.312485,145.826096 212.764542,144.930359 213.428467,144.727280 
	C214.896133,144.278336 216.470398,144.177902 218.001175,143.935303 
z"/>
<path fill="#C9EB14" opacity="1.000000" stroke="none" 
	d="
M195.862747,103.779160 
	C198.956146,102.863167 201.995621,101.533714 205.154755,101.121735 
	C210.819107,100.383057 216.549561,100.049385 222.263351,99.820366 
	C227.850647,99.596405 229.099960,101.113091 228.295944,106.802719 
	C221.488815,101.550529 213.660278,101.377747 207.491989,106.274033 
	C206.672058,106.924866 205.812851,107.526207 204.631073,108.111389 
	C201.535416,110.738716 198.780518,113.405113 195.760468,115.803680 
	C195.617783,111.616951 195.740265,107.698059 195.862747,103.779160 
z"/>
<path fill="#CFCFCF" opacity="1.000000" stroke="none" 
	d="
M238.244919,363.573669 
	C240.338577,368.333618 239.098236,370.703308 234.678116,370.901825 
	C232.727768,370.989471 230.770233,370.916595 228.507401,370.916595 
	C228.507401,365.857391 228.507401,361.298065 228.507401,356.771149 
	C237.571259,355.111328 239.896545,356.718231 238.244919,363.573669 
z"/>
<path fill="#41385B" opacity="1.000000" stroke="none" 
	d="
M216.871338,159.695068 
	C219.223785,159.632217 221.576248,159.569366 223.959167,158.914948 
	C223.989624,158.323364 224.265015,158.082123 224.626923,158.027634 
	C225.957504,158.001572 226.926163,158.029999 227.894836,158.058426 
	C230.196625,161.430206 232.498428,164.801987 234.467163,168.565140 
	C229.602371,167.239655 224.314774,168.799988 220.023422,165.586365 
	C219.370117,165.097153 217.324692,166.466949 215.583008,167.015503 
	C212.463791,170.031143 209.342438,169.218170 204.689896,167.616333 
	C207.195251,166.411255 208.602341,165.182907 210.033813,165.153839 
	C213.693390,165.079437 214.914200,163.183472 215.265671,159.876129 
	C216.013321,159.776108 216.442322,159.735580 216.871338,159.695068 
z"/>
<path fill="#677E0B" opacity="1.000000" stroke="none" 
	d="
M196.025604,116.071510 
	C198.780518,113.405113 201.535416,110.738716 204.573959,108.434052 
	C204.539688,110.557518 204.221771,112.319260 203.918427,114.388565 
	C203.624969,115.457741 203.316940,116.219345 202.785858,117.096054 
	C202.375687,117.483955 202.188599,117.756744 202.006500,118.019348 
	C202.011505,118.009171 202.031647,117.998718 201.775116,118.165009 
	C201.337402,118.894363 201.156219,119.457428 200.991943,120.017639 
	C201.008865,120.014778 201.020432,119.982353 201.020432,119.982353 
	C195.801971,119.738213 193.087357,123.735619 189.425781,126.747437 
	C185.373306,122.026405 185.988220,113.070198 190.704666,108.374512 
	C191.491440,112.065254 191.979675,115.500809 192.467911,118.936371 
	C192.890884,119.048164 193.313873,119.159950 193.736847,119.271744 
	C194.499771,118.204994 195.262695,117.138252 196.025604,116.071510 
z"/>
<path fill="#0D0F07" opacity="1.000000" stroke="none" 
	d="
M215.923172,166.976898 
	C217.324692,166.466949 219.370117,165.097153 220.023422,165.586365 
	C224.314774,168.799988 229.602371,167.239655 234.534851,168.908768 
	C234.563644,169.865494 234.191666,170.869980 233.140198,171.714172 
	C229.866455,170.849503 227.272202,170.145111 224.677963,169.440720 
	C224.798004,170.031754 224.918030,170.622787 225.038071,171.213821 
	C223.705612,172.822876 222.373138,174.431915 221.040680,176.040970 
	C218.725510,176.360611 216.410355,176.680252 213.526520,176.677719 
	C212.643219,175.536682 212.328613,174.717834 212.242035,173.649368 
	C213.621094,171.258789 214.772125,169.117859 215.923172,166.976898 
z"/>
<path fill="#98B10E" opacity="1.000000" stroke="none" 
	d="
M203.903854,114.080994 
	C204.221771,112.319260 204.539688,110.557518 204.914703,108.473129 
	C205.812851,107.526207 206.672058,106.924866 207.491989,106.274033 
	C213.660278,101.377747 221.488815,101.550529 228.023560,107.099731 
	C227.310135,108.598145 226.451797,109.732178 225.136307,110.655792 
	C219.797577,108.168449 214.915009,105.923882 209.836212,109.983383 
	C208.630112,110.777313 207.424011,111.571251 205.794327,112.719521 
	C204.881790,113.409569 204.392822,113.745285 203.903854,114.080994 
z"/>
<path fill="#2F281E" opacity="1.000000" stroke="none" 
	d="
M215.583008,167.015503 
	C214.772125,169.117859 213.621094,171.258789 211.884293,173.601288 
	C208.233078,172.576508 205.167603,171.350159 202.102142,170.123795 
	C203.362488,167.014084 204.622849,163.904358 206.268005,160.370087 
	C207.934875,159.164032 209.221024,158.389145 210.497467,157.598602 
	C211.295639,157.104248 212.079193,156.586258 212.896729,156.312317 
	C212.924164,156.545761 213.001801,157.010239 213.019577,157.392059 
	C213.110062,158.277969 213.182770,158.782074 213.417175,159.461456 
	C214.034927,159.736359 214.490982,159.835983 214.947037,159.935608 
	C214.914200,163.183472 213.693390,165.079437 210.033813,165.153839 
	C208.602341,165.182907 207.195251,166.411255 204.689896,167.616333 
	C209.342438,169.218170 212.463791,170.031143 215.583008,167.015503 
z"/>
<path fill="#CFCFCF" opacity="1.000000" stroke="none" 
	d="
M282.737213,370.337891 
	C282.045654,374.781799 279.307037,375.346466 275.997955,374.784210 
	C275.268890,374.660309 274.121094,374.020355 274.049377,373.497009 
	C273.619080,370.357178 272.812531,367.075348 273.322693,364.041321 
	C274.319855,358.110657 279.017120,360.264709 282.905579,360.387726 
	C282.905579,363.661987 282.905579,366.801575 282.737213,370.337891 
M277.057220,362.491394 
	C276.572052,363.111603 275.659943,363.752502 275.688782,364.347778 
	C275.752777,365.668457 276.161194,367.025482 276.721283,368.232086 
	C276.862762,368.536896 278.615265,368.587555 278.750824,368.316498 
	C279.357086,367.104584 279.989197,365.715332 279.919006,364.427887 
	C279.878113,363.677246 278.529968,362.997925 277.057220,362.491394 
z"/>
<path fill="#CFCFCF" opacity="1.000000" stroke="none" 
	d="
M318.648346,367.586060 
	C318.655609,363.695282 318.655609,360.254883 318.655609,355.291290 
	C322.586884,356.413208 326.806305,356.420807 328.728973,358.525970 
	C330.416840,360.374115 330.211670,364.709442 329.614960,367.701355 
	C328.797363,371.800385 324.872375,370.757599 321.841675,370.948029 
	C319.660248,371.085114 318.261627,370.600952 318.648346,367.586060 
M327.599182,366.795563 
	C329.107269,360.091370 327.303802,357.909637 321.235901,358.996094 
	C321.235901,362.227051 321.235901,365.436218 321.235901,369.279510 
	C323.572510,368.597992 325.390198,368.067810 327.599182,366.795563 
z"/>
<path fill="#CFCFCF" opacity="1.000000" stroke="none" 
	d="
M187.463333,359.872864 
	C191.581268,359.357849 193.297623,361.936127 193.069183,364.821167 
	C192.901062,366.944550 191.106064,369.591583 189.257187,370.670135 
	C188.245041,371.260559 184.560532,369.528992 183.934433,368.056549 
	C182.588776,364.891632 182.958969,361.430664 187.463333,359.872864 
M188.311584,368.979950 
	C189.341339,368.520630 190.371094,368.061279 191.400833,367.601929 
	C189.543243,366.696930 187.248016,364.360718 188.311584,368.979950 
z"/>
<path fill="#CFCFCF" opacity="1.000000" stroke="none" 
	d="
M352.339325,360.002991 
	C359.209656,363.010071 352.706055,367.151062 354.067902,370.658356 
	C350.159576,371.117645 346.470306,371.850922 345.951202,366.662750 
	C345.516571,362.319489 347.136475,359.605347 352.339325,360.002991 
z"/>
<path fill="#4D3F34" opacity="1.000000" stroke="none" 
	d="
M212.869293,156.078888 
	C212.079193,156.586258 211.295639,157.104248 210.497467,157.598602 
	C209.221024,158.389145 207.934875,159.164032 206.300659,159.998505 
	C205.197617,159.697266 204.446716,159.343048 203.432068,158.585297 
	C204.142365,154.524414 205.116394,150.867065 206.090424,147.209732 
	C206.090424,147.209732 206.531738,147.043655 207.168594,146.987335 
	C209.199249,146.950562 210.593033,146.970093 211.986832,146.989624 
	C212.128845,147.969406 212.494827,148.980347 212.363785,149.922150 
	C212.128632,151.612411 209.984619,153.304886 212.773529,155.250885 
	C212.999374,155.611557 212.869308,156.078888 212.869293,156.078888 
z"/>
<path fill="#CFCFCF" opacity="1.000000" stroke="none" 
	d="
M402.377045,361.710083 
	C402.260712,362.924774 401.675385,363.855682 401.777679,364.703613 
	C401.977783,366.362122 402.561707,367.974335 402.986755,369.605713 
	C400.811127,370.170044 398.635468,370.734375 396.459839,371.298706 
	C396.324738,370.743164 396.189636,370.187592 396.054535,369.632050 
	C397.532898,369.258606 399.011261,368.885162 400.789673,368.435944 
	C399.854370,365.352692 392.101166,366.483032 395.858643,361.056610 
	C397.553772,358.608551 400.190002,359.248566 402.377045,361.710083 
z"/>
<path fill="#0D0F07" opacity="1.000000" stroke="none" 
	d="
M211.875565,146.698608 
	C210.593033,146.970093 209.199249,146.950562 207.387054,146.898682 
	C206.426468,145.741821 205.884277,144.617340 205.313049,142.924347 
	C206.521667,141.567886 207.759338,140.779892 208.997009,139.991898 
	C211.719452,139.663773 214.441910,139.335648 217.575806,138.995743 
	C217.993149,140.360931 217.999008,141.737915 218.003021,143.525085 
	C216.470398,144.177902 214.896133,144.278336 213.428467,144.727280 
	C212.764542,144.930359 212.312485,145.826096 211.875565,146.698608 
z"/>
<path fill="#2F281E" opacity="1.000000" stroke="none" 
	d="
M205.793579,147.063034 
	C205.116394,150.867065 204.142365,154.524414 203.119308,158.546417 
	C202.509430,158.586319 201.766373,158.393387 201.419418,157.913849 
	C199.968033,155.907837 197.107956,153.333725 197.574722,151.854858 
	C198.572281,148.694214 201.332428,146.114609 205.793579,147.063034 
z"/>
<path fill="#6B5C44" opacity="1.000000" stroke="none" 
	d="
M221.304214,176.347168 
	C222.373138,174.431915 223.705612,172.822876 225.038071,171.213821 
	C224.918030,170.622787 224.798004,170.031754 224.677963,169.440720 
	C227.272202,170.145111 229.866455,170.849503 232.796234,171.772079 
	C233.532684,172.927109 233.933578,173.863953 234.182846,175.051636 
	C229.876724,175.752777 225.722244,176.203064 221.304214,176.347168 
z"/>
<path fill="#CFCFCF" opacity="1.000000" stroke="none" 
	d="
M374.472534,364.328369 
	C375.137848,364.691864 375.950592,364.936249 376.044891,364.770874 
	C376.958405,363.169159 377.751312,361.498657 378.578674,359.847809 
	C379.133148,360.071686 379.687653,360.295563 380.242126,360.519440 
	C378.974274,364.037964 377.706421,367.556488 376.438568,371.075012 
	C375.870941,371.124084 375.303284,371.173157 374.735657,371.222229 
	C373.247467,367.716919 371.759277,364.211639 370.271088,360.706329 
	C370.800903,360.431854 371.330688,360.157379 371.860474,359.882904 
	C372.669159,361.261658 373.477875,362.640411 374.472534,364.328369 
z"/>
<path fill="#CFCFCF" opacity="1.000000" stroke="none" 
	d="
M85.748154,366.591003 
	C87.962440,367.910309 90.166435,368.786499 92.708580,369.797119 
	C90.491699,372.101501 87.438004,370.713593 84.875130,370.621735 
	C84.286034,370.600616 83.462730,367.670807 83.341461,366.035522 
	C83.099617,362.774445 83.269798,359.482819 83.269798,356.203796 
	C84.092484,356.208038 84.915176,356.212250 85.737862,356.216461 
	C85.737862,359.526947 85.737862,362.837402 85.748154,366.591003 
z"/>
<path fill="#CFCFCF" opacity="1.000000" stroke="none" 
	d="
M224.265015,158.082123 
	C224.265015,158.082123 223.989624,158.323364 223.977509,158.505707 
	C222.303558,158.422241 220.641708,158.156433 218.979874,157.890640 
	C218.844009,157.571106 218.708160,157.251572 218.572296,156.932037 
	C219.689697,156.370758 220.807098,155.809464 222.103210,155.158401 
	C219.892883,153.703857 217.664642,152.237534 215.436401,150.771210 
	C215.724289,150.186691 216.012161,149.602173 216.300049,149.017654 
	C219.442657,149.818893 222.585251,150.620117 226.097778,151.551956 
	C226.607147,152.858459 226.746552,154.034332 226.564972,155.648499 
	C225.584320,156.751907 224.924667,157.417007 224.265015,158.082123 
z"/>
<path fill="#6B5C44" opacity="1.000000" stroke="none" 
	d="
M202.086197,170.557861 
	C205.167603,171.350159 208.233078,172.576508 211.656281,173.850922 
	C212.328613,174.717834 212.643219,175.536682 213.123352,176.650757 
	C209.645599,177.225327 206.002335,177.504654 202.072418,177.462509 
	C201.880585,175.091324 201.975418,173.041641 202.086197,170.557861 
z"/>
<path fill="#CFCFCF" opacity="1.000000" stroke="none" 
	d="
M145.381714,360.535187 
	C146.097473,359.092133 146.640381,358.006226 147.395432,356.495972 
	C148.666809,358.230865 149.600571,359.505066 150.534332,360.779266 
	C150.213898,360.803680 149.893478,360.828094 149.573044,360.852509 
	C149.573044,364.060638 149.573044,367.268738 149.573044,370.765320 
	C147.385971,371.589905 146.213699,370.696930 146.145996,367.687653 
	C146.094894,365.416687 145.539688,363.157013 145.381714,360.535187 
z"/>
<path fill="#2F281E" opacity="1.000000" stroke="none" 
	d="
M210.247681,110.021667 
	C214.915009,105.923882 219.797577,108.168449 224.826752,110.797150 
	C223.985168,112.313240 222.996002,113.477554 221.827911,114.938538 
	C217.985703,113.510124 214.322418,111.785042 210.247681,110.021667 
z"/>
<path fill="#98B10E" opacity="1.000000" stroke="none" 
	d="
M195.760452,115.803680 
	C195.262695,117.138252 194.499771,118.204994 193.736847,119.271744 
	C193.313873,119.159950 192.890884,119.048164 192.467911,118.936371 
	C191.979675,115.500809 191.491440,112.065254 190.971161,108.272049 
	C192.357117,106.603516 193.775101,105.292625 195.527924,103.880447 
	C195.740265,107.698059 195.617783,111.616951 195.760452,115.803680 
z"/>
<path fill="#6B5C44" opacity="1.000000" stroke="none" 
	d="
M236.783890,125.652115 
	C237.404495,125.330147 238.025101,125.008171 238.645706,124.686188 
	C237.821045,128.956482 242.051346,130.250977 243.558380,133.138474 
	C243.869171,133.733932 243.490112,134.689423 242.885468,135.717834 
	C241.229187,135.301819 240.116455,134.646942 238.946487,133.649857 
	C237.925964,132.871964 236.962677,132.436279 236.151764,131.688690 
	C236.464066,129.468536 236.623978,127.560326 236.783890,125.652115 
z"/>
<path fill="#4D3F34" opacity="1.000000" stroke="none" 
	d="
M208.990387,139.639557 
	C207.759338,140.779892 206.521667,141.567886 205.135193,142.639694 
	C203.238190,142.695801 201.490005,142.468079 199.403503,142.064224 
	C200.630905,137.717087 205.960495,136.319550 208.990387,139.639557 
z"/>
<path fill="#FEFAFA" opacity="1.000000" stroke="none" 
	d="
M130.517975,361.872253 
	C129.775497,364.887207 129.337204,367.637177 128.913330,370.296631 
	C126.433189,369.549774 125.547356,361.908783 128.169922,357.114075 
	C129.076065,358.649170 129.949112,360.128204 130.517975,361.872253 
z"/>
<path fill="#63533D" opacity="1.000000" stroke="none" 
	d="
M236.495605,125.780838 
	C236.623978,127.560326 236.464066,129.468536 236.152069,131.688385 
	C236.000000,132.000000 236.000610,131.999130 235.682022,132.043213 
	C234.910828,132.721695 234.458221,133.356079 233.693710,133.987244 
	C232.966675,133.979401 232.551529,133.974762 232.136398,133.970108 
	C231.703232,131.594131 231.270050,129.218155 230.915375,127.272766 
	C232.971130,126.743210 234.589233,126.326393 236.495605,125.780838 
z"/>
<path fill="#CFCFCF" opacity="1.000000" stroke="none" 
	d="
M110.553764,370.231354 
	C109.577904,370.246094 108.235428,369.933319 108.214447,369.548492 
	C108.042915,366.401611 108.117813,363.241333 108.850723,360.021820 
	C112.132744,362.852448 110.548698,366.541748 110.553764,370.231354 
z"/>
<path fill="#4D3F34" opacity="1.000000" stroke="none" 
	d="
M223.361221,132.910034 
	C219.942230,134.366470 216.799088,135.692719 213.595840,136.853058 
	C213.252151,136.977554 212.558533,136.136032 212.354095,135.246582 
	C216.084717,133.132080 219.488480,131.513657 222.998703,130.074387 
	C223.396408,130.144974 223.687653,130.036438 223.942642,129.948730 
	C223.906403,129.969574 223.846252,129.911499 223.846252,129.911499 
	C224.053802,129.935654 224.261368,129.959824 224.780396,130.023453 
	C224.601105,130.952530 224.110382,131.842148 223.361221,132.910034 
z"/>
<path fill="#4D3F34" opacity="1.000000" stroke="none" 
	d="
M239.003723,133.992081 
	C240.116455,134.646942 241.229187,135.301819 242.668488,135.977432 
	C241.198349,137.584106 239.401642,139.170029 237.298248,140.882141 
	C236.194427,140.101013 235.397278,139.193680 234.083359,138.039490 
	C233.292816,137.587402 233.105347,137.321335 233.000519,136.998566 
	C232.996857,137.002670 232.987091,137.009766 233.237488,137.000549 
	C233.654663,136.984848 233.821472,136.978348 234.210556,136.872986 
	C234.708344,136.579468 234.897308,136.321426 235.332703,136.001358 
	C236.109665,136.001205 236.553619,135.999680 237.244598,135.847641 
	C237.995667,135.128769 238.499695,134.560425 239.003723,133.992081 
z"/>
<path fill="#4D3F34" opacity="1.000000" stroke="none" 
	d="
M231.959656,134.215424 
	C232.551529,133.974762 232.966675,133.979401 233.704788,134.237793 
	C234.035294,134.658478 234.042831,134.825439 234.034546,135.253845 
	C234.013412,135.689850 234.008087,135.864395 233.781586,136.139954 
	C233.281235,136.431534 233.090118,136.687805 232.987091,137.009766 
	C232.987091,137.009766 232.996857,137.002670 232.622589,136.998215 
	C231.492035,136.989822 230.735748,136.985870 229.979477,136.981934 
	C229.962738,136.793274 229.945984,136.604614 229.887497,136.133865 
	C230.491486,135.388092 231.137207,134.924408 231.959656,134.215424 
z"/>
<path fill="#2F281E" opacity="1.000000" stroke="none" 
	d="
M224.626923,158.027634 
	C224.924667,157.417007 225.584320,156.751907 226.531174,156.009583 
	C227.193695,156.420700 227.569016,156.909058 227.919586,157.727905 
	C226.926163,158.029999 225.957504,158.001572 224.626923,158.027634 
z"/>
<path fill="#FEFBFB" opacity="1.000000" stroke="none" 
	d="
M297.476685,197.821228 
	C299.137024,196.449066 300.597443,194.916977 302.265930,194.640457 
	C326.967255,190.546555 351.867798,188.788864 376.889038,189.120850 
	C379.578094,189.156540 382.528992,190.900711 384.865540,192.550430 
	C399.090302,202.593796 413.118561,212.915253 427.336487,222.968445 
	C431.308075,225.776688 432.788696,228.819214 431.941223,233.869873 
	C428.057281,257.017059 423.728821,280.055023 414.926514,301.920502 
	C411.530273,310.357086 407.058929,318.372986 402.822113,326.446564 
	C402.153046,327.721558 400.129608,329.057343 398.727142,329.062988 
	C364.415955,329.201416 330.104065,329.164703 295.792297,329.144440 
	C295.310486,329.144165 294.828796,328.953400 293.698486,328.714386 
	C291.973511,285.196777 295.530701,241.740829 297.476685,197.821228 
M343.150391,212.361252 
	C338.395050,211.869385 333.639740,211.377533 328.353119,210.830719 
	C324.999176,243.763611 326.118530,276.267181 326.178467,309.087006 
	C336.843781,309.087006 346.646576,308.893463 356.435638,309.175354 
	C360.792725,309.300842 362.628479,307.917938 363.225708,303.488251 
	C366.913635,276.135101 370.819519,248.811218 374.714722,221.486404 
	C375.092957,218.833221 374.435608,217.533554 371.583893,217.093674 
	C362.386383,215.674911 353.223724,214.030304 343.150391,212.361252 
z"/>
<path fill="#FEFAFA" opacity="1.000000" stroke="none" 
	d="
M189.121490,191.940857 
	C207.541779,190.935760 225.498169,189.830841 243.469604,189.090103 
	C246.221558,188.976669 249.576385,189.832199 251.741974,191.454727 
	C262.593506,199.585083 273.227325,208.016571 283.682922,216.650650 
	C284.910950,217.664719 285.246368,220.729797 284.823792,222.575851 
	C283.865814,226.761032 281.929626,230.713928 280.835876,234.878082 
	C278.446442,243.975082 271.620697,248.659470 263.937988,252.643097 
	C260.162933,254.600540 256.453125,256.683899 251.741669,259.237091 
	C257.267578,262.482788 262.047577,265.245209 266.782715,268.082458 
	C273.469574,272.089203 280.137360,276.128265 286.784241,280.200897 
	C289.477509,281.851074 290.793030,283.985687 289.334869,287.287048 
	C283.503052,300.490601 277.806976,313.754456 271.889557,326.919067 
	C271.419159,327.965546 269.640533,329.061584 268.468964,329.062592 
	C233.488068,329.092773 198.507050,328.987762 163.526062,328.896027 
	C163.371338,328.895599 163.216888,328.779022 162.567429,328.517273 
	C162.424225,327.156433 162.068268,325.539948 162.112869,323.934601 
	C162.871750,296.624481 163.621109,269.313812 164.502518,242.007477 
	C164.954010,228.020340 165.776505,214.044708 166.171890,200.056564 
	C166.270660,196.562012 167.329147,194.964188 170.884918,194.567215 
	C176.833664,193.903076 182.738953,192.849655 189.121490,191.940857 
M233.057709,242.748077 
	C239.260071,242.022247 242.475983,238.732117 242.186142,232.293076 
	C242.134995,231.156479 242.567841,230.003784 242.723679,228.851288 
	C244.201553,217.922897 244.198013,217.923584 233.524811,215.738953 
	C233.036987,215.639084 232.567352,215.434845 232.077026,215.365021 
	C220.621948,213.733887 209.165207,212.114594 197.161865,210.415710 
	C196.468521,224.081177 195.819778,236.867798 195.141113,250.244049 
	C197.837341,249.821304 199.457779,249.631470 201.050781,249.307053 
	C211.451080,247.189087 221.845444,245.041946 233.057709,242.748077 
M219.468369,309.149841 
	C221.797028,309.128174 224.142487,308.919067 226.450638,309.126068 
	C230.543152,309.493073 231.974655,307.557495 232.373566,303.701904 
	C232.988022,297.762878 234.097122,291.875702 234.965912,285.962067 
	C236.014481,278.824677 237.031158,271.682587 238.157425,263.878815 
	C223.148178,267.288116 209.281250,270.437958 195.773972,273.506104 
	C195.773972,285.506317 195.773972,297.184692 195.773972,309.158539 
	C203.888962,309.158539 211.184036,309.158539 219.468369,309.149841 
z"/>
<path fill="#FEFBFB" opacity="1.000000" stroke="none" 
	d="
M75.042389,248.953430 
	C74.336342,221.352554 73.641289,194.244263 72.926445,166.363983 
	C89.117119,166.097595 104.489372,167.808151 119.562721,170.436172 
	C117.226082,216.290161 114.909775,261.745056 112.557175,307.912292 
	C128.576553,307.912292 143.608505,307.912292 159.194611,307.912292 
	C158.688492,312.387268 158.267532,316.149353 157.836121,319.910248 
	C157.526505,322.609222 156.125122,323.675629 153.300797,324.119354 
	C133.421722,327.242462 113.583786,330.626648 93.722610,333.865540 
	C90.303658,334.423065 86.836594,334.685547 82.335945,335.206573 
	C79.883133,306.321869 77.468269,277.883911 75.042389,248.953430 
z"/>
<path fill="#63533D" opacity="1.000000" stroke="none" 
	d="
M203.918427,114.388565 
	C204.392822,113.745285 204.881790,113.409569 205.676727,113.021378 
	C207.126495,115.817711 209.578705,118.935028 209.063965,121.443497 
	C208.493713,124.222321 208.111664,126.848938 208.511459,129.549011 
	C208.680649,130.691589 209.781097,131.696274 210.711395,133.111816 
	C210.964523,133.459976 210.838593,133.885834 210.838593,133.885834 
	C209.815811,133.958527 208.793015,134.031219 207.241577,133.785248 
	C201.571564,131.309891 202.054962,125.815063 199.855759,121.912270 
	C200.176575,121.445625 200.497375,120.978989 200.919312,120.247345 
	C201.020432,119.982353 201.008865,120.014778 201.243317,119.849747 
	C201.662399,119.122719 201.847031,118.560722 202.031647,117.998718 
	C202.031647,117.998718 202.011505,118.009171 202.228897,117.903564 
	C202.633835,117.525627 202.821381,117.253288 203.008926,116.980942 
	C203.316940,116.219345 203.624969,115.457741 203.918427,114.388565 
z"/>
<path fill="#0D0F07" opacity="1.000000" stroke="none" 
	d="
M210.996170,134.131363 
	C210.838593,133.885834 210.964523,133.459976 211.026337,133.246735 
	C213.501907,131.115112 215.930405,129.214890 218.325684,127.273666 
	C221.267319,124.889641 223.093689,125.499054 223.793777,129.513687 
	C223.846252,129.911499 223.906403,129.969574 223.673157,129.862122 
	C223.257339,129.801544 223.074783,129.848389 222.892227,129.895248 
	C219.488480,131.513657 216.084717,133.132080 212.369446,134.925568 
	C211.756516,134.859375 211.455139,134.618134 210.996170,134.131363 
z"/>
<path fill="#2F281E" opacity="1.000000" stroke="none" 
	d="
M211.468079,120.439804 
	C211.306564,118.706001 211.432251,117.189140 211.557922,115.672287 
	C212.910339,115.800224 214.320801,115.745041 215.586533,116.146378 
	C216.091919,116.306633 216.628632,118.055260 216.557556,118.098190 
	C215.007294,119.034622 213.373245,119.832375 211.468079,120.439804 
z"/>
<path fill="#4D3F34" opacity="1.000000" stroke="none" 
	d="
M199.528839,122.002701 
	C202.054962,125.815063 201.571564,131.309891 206.857544,133.804703 
	C202.419907,135.708939 202.419907,135.708939 195.183075,130.372742 
	C201.676575,129.753601 197.367828,124.736534 199.528839,122.002701 
z"/>
<path fill="#4D3F34" opacity="1.000000" stroke="none" 
	d="
M213.255463,159.286179 
	C213.182770,158.782074 213.110062,158.277969 213.317993,157.253143 
	C214.745865,156.217850 215.893082,155.703262 217.040298,155.188660 
	C217.051331,155.581848 217.062347,155.975037 216.948730,157.006149 
	C215.634552,158.191452 214.445007,158.738815 213.255463,159.286179 
z"/>
<path fill="#CFCFCF" opacity="1.000000" stroke="none" 
	d="
M213.417175,159.461456 
	C214.445007,158.738815 215.634552,158.191452 216.909454,157.298706 
	C217.027878,157.680573 217.060974,158.407791 216.982697,159.415039 
	C216.442322,159.735580 216.013321,159.776108 215.265671,159.876114 
	C214.490982,159.835983 214.034927,159.736359 213.417175,159.461456 
z"/>
<path fill="#6B5C44" opacity="1.000000" stroke="none" 
	d="
M216.948074,154.834106 
	C215.893082,155.703262 214.745865,156.217850 213.300232,156.871338 
	C213.001801,157.010239 212.924164,156.545761 212.896729,156.312317 
	C212.869308,156.078888 212.999374,155.611557 213.049774,155.375244 
	C214.352081,154.919128 215.603958,154.699341 216.948074,154.834106 
z"/>
<path fill="#63533D" opacity="1.000000" stroke="none" 
	d="
M230.070236,137.248428 
	C230.735748,136.985870 231.492035,136.989822 232.626251,136.994110 
	C233.105347,137.321335 233.292816,137.587402 233.790695,137.897980 
	C234.014801,138.003311 233.973984,138.485870 233.732880,138.731445 
	C233.491760,138.977020 233.016525,138.985016 233.016525,138.985016 
	C232.845398,138.980469 232.674286,138.975937 231.984970,138.980743 
	C231.292374,138.995316 231.117966,139.000595 230.943573,139.005859 
	C230.682709,138.508881 230.421860,138.011902 230.070236,137.248428 
z"/>
<path fill="#4D3F34" opacity="1.000000" stroke="none" 
	d="
M230.734573,139.136444 
	C231.117966,139.000595 231.292374,138.995316 231.728363,138.990570 
	C231.507599,139.447342 231.025223,139.903595 230.542847,140.359863 
	C230.537079,139.995575 230.531326,139.631302 230.734573,139.136444 
z"/>
<path fill="#4D3F34" opacity="1.000000" stroke="none" 
	d="
M233.093109,139.167557 
	C233.016525,138.985016 233.491760,138.977020 233.729034,138.973541 
	C233.700775,139.096756 233.435226,139.223419 233.093109,139.167557 
z"/>
<path fill="#2F281E" opacity="1.000000" stroke="none" 
	d="
M201.775116,118.165009 
	C201.847031,118.560722 201.662399,119.122719 201.226410,119.852608 
	C201.156219,119.457428 201.337402,118.894363 201.775116,118.165009 
z"/>
<path fill="#2F281E" opacity="1.000000" stroke="none" 
	d="
M202.785858,117.096054 
	C202.821381,117.253288 202.633835,117.525627 202.223892,117.913750 
	C202.188599,117.756744 202.375687,117.483955 202.785858,117.096054 
z"/>
<path fill="#0D0F07" opacity="1.000000" stroke="none" 
	d="
M277.413605,362.388977 
	C278.529968,362.997925 279.878113,363.677246 279.919006,364.427887 
	C279.989197,365.715332 279.357086,367.104584 278.750824,368.316498 
	C278.615265,368.587555 276.862762,368.536896 276.721283,368.232086 
	C276.161194,367.025482 275.752777,365.668457 275.688782,364.347778 
	C275.659943,363.752502 276.572052,363.111603 277.413605,362.388977 
z"/>
<path fill="#0D0F07" opacity="1.000000" stroke="none" 
	d="
M327.403564,367.166595 
	C325.390198,368.067810 323.572510,368.597992 321.235901,369.279510 
	C321.235901,365.436218 321.235901,362.227051 321.235901,358.996094 
	C327.303802,357.909637 329.107269,360.091370 327.403564,367.166595 
z"/>
<path fill="#000000" opacity="1.000000" stroke="none" 
	d="
M187.772491,368.723206 
	C187.248016,364.360718 189.543243,366.696930 191.400833,367.601929 
	C190.371094,368.061279 189.341339,368.520630 187.772491,368.723206 
z"/>
<path fill="#63533D" opacity="1.000000" stroke="none" 
	d="
M238.946487,133.649857 
	C238.499695,134.560425 237.995667,135.128769 237.106873,135.526901 
	C236.481613,134.237503 236.241104,133.118317 236.000610,131.999130 
	C236.000610,131.999130 236.000000,132.000000 235.999695,132.000305 
	C236.962677,132.436279 237.925964,132.871964 238.946487,133.649857 
z"/>
<path fill="#6B5C44" opacity="1.000000" stroke="none" 
	d="
M235.682007,132.043213 
	C236.241104,133.118317 236.481613,134.237503 236.859833,135.677429 
	C236.553619,135.999680 236.109665,136.001205 235.229218,135.786560 
	C234.604538,135.301605 234.357086,135.108932 234.050354,134.992386 
	C234.042831,134.825439 234.035294,134.658478 234.016693,134.240982 
	C234.458221,133.356079 234.910828,132.721695 235.682007,132.043213 
z"/>
<path fill="#6B5C44" opacity="1.000000" stroke="none" 
	d="
M222.998703,130.074387 
	C223.074783,129.848389 223.257339,129.801544 223.709381,129.841278 
	C223.687653,130.036438 223.396408,130.144974 222.998703,130.074387 
z"/>
<path fill="#63533D" opacity="1.000000" stroke="none" 
	d="
M234.034546,135.253845 
	C234.357086,135.108932 234.604538,135.301605 234.896210,135.785202 
	C234.897308,136.321426 234.708344,136.579468 234.213684,136.639923 
	C233.994537,136.505737 234.002747,136.038956 234.002747,136.038956 
	C234.008087,135.864395 234.013412,135.689850 234.034546,135.253845 
z"/>
<path fill="#6B5C44" opacity="1.000000" stroke="none" 
	d="
M233.781586,136.139954 
	C234.002747,136.038956 233.994537,136.505737 233.991394,136.738800 
	C233.821472,136.978348 233.654663,136.984848 233.237488,137.000549 
	C233.090118,136.687805 233.281235,136.431534 233.781586,136.139954 
z"/>
<path fill="#C80809" opacity="1.000000" stroke="none" 
	d="
M343.598999,212.417007 
	C353.223724,214.030304 362.386383,215.674911 371.583893,217.093674 
	C374.435608,217.533554 375.092957,218.833221 374.714722,221.486404 
	C370.819519,248.811218 366.913635,276.135101 363.225708,303.488251 
	C362.628479,307.917938 360.792725,309.300842 356.435638,309.175354 
	C346.646576,308.893463 336.843781,309.087006 326.178467,309.087006 
	C326.118530,276.267181 324.999176,243.763611 328.353119,210.830719 
	C333.639740,211.377533 338.395050,211.869385 343.598999,212.417007 
M340.620178,237.101196 
	C340.377228,238.061615 339.926819,239.021027 339.922150,239.982620 
	C339.837921,257.455444 339.759247,274.928864 339.882477,292.400757 
	C339.890015,293.469482 342.007782,295.584961 342.427216,295.417633 
	C345.240997,294.295135 349.627655,297.768341 351.007080,292.806946 
	C351.891479,289.626007 352.445221,286.333496 352.902527,283.056854 
	C354.959320,268.319885 357.017975,253.581894 358.864258,238.817795 
	C359.304291,235.299011 358.929535,231.678345 358.929535,228.188141 
	C352.712585,227.372696 347.031555,226.627533 340.689972,225.795731 
	C340.689972,229.606323 340.689972,232.887924 340.620178,237.101196 
z"/>
<path fill="#CB090A" opacity="1.000000" stroke="none" 
	d="
M232.649719,242.826202 
	C221.845444,245.041946 211.451080,247.189087 201.050781,249.307053 
	C199.457779,249.631470 197.837341,249.821304 195.141113,250.244049 
	C195.819778,236.867798 196.468521,224.081177 197.161865,210.415710 
	C209.165207,212.114594 220.621948,213.733887 232.077026,215.365021 
	C232.567352,215.434845 233.036987,215.639084 233.524811,215.738953 
	C244.198013,217.923584 244.201553,217.922897 242.723679,228.851288 
	C242.567841,230.003784 242.134995,231.156479 242.186142,232.293076 
	C242.475983,238.732117 239.260071,242.022247 232.649719,242.826202 
M215.506607,232.861176 
	C219.838501,232.113312 224.466751,232.155106 228.599487,228.333832 
	C223.930389,227.638824 220.179077,227.223022 216.487686,226.500931 
	C209.067123,225.049347 207.644119,226.578644 209.923996,234.113739 
	C211.487122,233.722076 213.067017,233.326202 215.506607,232.861176 
z"/>
<path fill="#CD070A" opacity="1.000000" stroke="none" 
	d="
M218.973755,309.154175 
	C211.184036,309.158539 203.888962,309.158539 195.773972,309.158539 
	C195.773972,297.184692 195.773972,285.506317 195.773972,273.506104 
	C209.281250,270.437958 223.148178,267.288116 238.157425,263.878815 
	C237.031158,271.682587 236.014481,278.824677 234.965912,285.962067 
	C234.097122,291.875702 232.988022,297.762878 232.373566,303.701904 
	C231.974655,307.557495 230.543152,309.493073 226.450638,309.126068 
	C224.142487,308.919067 221.797028,309.128174 218.973755,309.154175 
M209.560623,296.628265 
	C213.134537,296.438171 217.074646,298.868683 220.750961,294.664856 
	C221.337204,290.369934 221.923462,286.075012 222.509705,281.780060 
	C218.637955,281.917755 214.765381,282.037506 210.895523,282.216370 
	C210.427582,282.238007 209.858536,282.465424 209.536667,282.793762 
	C208.657410,283.690674 207.129456,284.755890 207.203720,285.641663 
	C207.498245,289.155487 208.306900,292.626251 209.560623,296.628265 
z"/>
<path fill="#030000" opacity="1.000000" stroke="none" 
	d="
M340.655090,236.635376 
	C340.689972,232.887924 340.689972,229.606323 340.689972,225.795731 
	C347.031555,226.627533 352.712585,227.372696 358.929535,228.188141 
	C358.929535,231.678345 359.304291,235.299011 358.864258,238.817795 
	C357.017975,253.581894 354.959320,268.319885 352.902527,283.056854 
	C352.445221,286.333496 351.891479,289.626007 351.007080,292.806946 
	C349.627655,297.768341 345.240997,294.295135 342.427216,295.417633 
	C342.007782,295.584961 339.890015,293.469482 339.882477,292.400757 
	C339.759247,274.928864 339.837921,257.455444 339.922150,239.982620 
	C339.926819,239.021027 340.377228,238.061615 340.655090,236.635376 
z"/>
<path fill="#030000" opacity="1.000000" stroke="none" 
	d="
M215.076752,232.895752 
	C213.067017,233.326202 211.487122,233.722076 209.923996,234.113739 
	C207.644119,226.578644 209.067123,225.049347 216.487686,226.500931 
	C220.179077,227.223022 223.930389,227.638824 228.599487,228.333832 
	C224.466751,232.155106 219.838501,232.113312 215.076752,232.895752 
z"/>
<path fill="#C80809" opacity="1.000000" stroke="none" 
	d="
M208.925018,296.112946 
	C208.306900,292.626251 207.498245,289.155487 207.203720,285.641663 
	C207.129456,284.755890 208.657410,283.690674 209.536667,282.793762 
	C209.858536,282.465424 210.427582,282.238007 210.895523,282.216370 
	C214.765381,282.037506 218.637955,281.917755 222.509705,281.780090 
	C221.923462,286.075012 221.337204,290.369934 220.421173,294.876160 
	C220.091400,295.087463 220.028107,295.026672 220.112061,294.603821 
	C220.655426,290.212036 221.114838,286.243164 221.655197,281.574890 
	C216.796280,282.559357 213.018097,283.324860 208.973831,284.144257 
	C208.973831,288.221924 208.973831,292.127808 208.961014,296.053101 
	C208.948196,296.072540 208.925034,296.112946 208.925018,296.112946 
z"/>
<path fill="#C80809" opacity="1.000000" stroke="none" 
	d="
M220.123291,295.117615 
	C217.074646,298.868683 213.134537,296.438171 209.242828,296.370605 
	C208.925034,296.112946 208.948196,296.072540 209.362946,295.989746 
	C213.194504,295.613556 216.611298,295.320129 220.028107,295.026672 
	C220.028107,295.026672 220.091400,295.087463 220.123291,295.117615 
z"/>
<path fill="#030000" opacity="1.000000" stroke="none" 
	d="
M220.112061,294.603821 
	C216.611298,295.320129 213.194504,295.613556 209.375763,295.970337 
	C208.973831,292.127808 208.973831,288.221924 208.973831,284.144257 
	C213.018097,283.324860 216.796280,282.559357 221.655197,281.574890 
	C221.114838,286.243164 220.655426,290.212036 220.112061,294.603821 
z"/>
</svg>